<svg data-v-2cb57da0="" version="1.0" xmlns="http://www.w3.org/2000/svg" xmlns:xlink="http://www.w3.org/1999/xlink" width="100%" height="100%" viewBox="0 0 340.000000 250.000000" preserveAspectRatio="xMidYMid meet" color-interpolation-filters="sRGB" style="margin: auto;"><rect data-v-2cb57da0="" x="0" y="0" width="100%" height="100%" fill="#ffffff" fill-opacity="1" class="background"></rect> <rect data-v-2cb57da0="" x="0" y="0" width="100%" height="100%" fill="url(#watermark)" fill-opacity="1" class="watermarklayer"></rect> <g data-v-2cb57da0="" fill="#e69138" class="basesvg" transform="translate(94.7750015258789,100.23374938964844)"><g data-gra="path-name" fill-rule="" class="tp-name" transform="translate(0,0)"><g transform="scale(1)"><g><path d="M29.88-30.19L29.88-30.19Q29.93-29.9 30.7-21.16L30.7-21.16Q35.33-21.4 35.64-21.4L35.64-21.4Q35.64-21.18 36.17-14.85L36.17-14.85Q30.23-14.52 30.04-14.5L30.04-14.5Q29.2-11.27 29.2-11.18L29.2-11.18 29.22-11.18Q32.7-12.92 33.38-13.21L33.38-13.21 33.4-13.21Q33.4-13.16 35.16-10.59L35.16-10.59 37.05-7.82Q36.65-7.56 33.75-6.22L33.75-6.22Q33.49-6.06 31.46-5.1L31.46-5.1Q29.14-8.88 28.74-9.47L28.74-9.47 27.29-3.78 27.27-3.78Q27.03-3.8 19.97-5.23L19.97-5.23 22.87-14.11 22.85-14.11Q21.09-14.02 20.39-14.02L20.39-14.02Q20.39-14.46 20.1-18.19L20.1-18.19 20.08-18.19Q20.08-18.15 13.78-4.42L13.78-4.42Q13.51-3.78 13.45-3.78L13.45-3.78Q6.88-6.15 6.79-6.15L6.79-6.15Q7.03-6.75 8.61-9.95L8.61-9.95Q8.64-10 8.64-10.02L8.64-10.02 8.61-10.02Q6-9.84 5.78-9.84L5.78-9.84 5.78-9.89 5.63-13.58Q5.84-13.58 9.38-13.8L9.38-13.8Q9.4-13.73 9.4-13.71L9.4-13.71 9.54-11.84 9.56-11.84 11.36-15.58 11.32-15.58Q9.98-15.49 8.72-15.49L8.72-15.49Q8.39-17.07 8.33-17.53L8.33-17.53 8.31-17.53 6.72-14.19 6.7-14.19 1.38-16.11Q7.45-29.51 7.69-30.15L7.69-30.15 7.71-30.15Q7.78-30.15 11.29-29.11L11.29-29.11Q13.58-28.43 14.92-28.06L14.92-28.06Q14.77-27.69 14.02-26.1L14.02-26.1 14.04-26.1 19.75-26.32 21.6-21.45Q21.25-20.7 21.25-20.65L21.25-20.65 21.27-20.65Q22.81-20.76 23.25-20.76L23.25-20.76 23.25-20.79 22.57-29.4Q22.54-29.4 22.54-29.42L22.54-29.42Q28.83-30.06 29.88-30.19ZM30.34-25.49L33.55-28.76Q36.67-25.71 36.87-25.49L36.87-25.49Q36.83-25.49 36.5-25.11L36.5-25.11Q36.45-25.11 36.25-24.87L36.25-24.87Q36.21-24.87 35.66-24.28L35.66-24.28Q35.62-24.28 35.46-24.08L35.46-24.08Q35.44-24.08 34.87-23.49L34.87-23.49Q34.83-23.49 34.67-23.29L34.67-23.29Q34.63-23.29 34.32-22.92L34.32-22.92Q34.28-22.92 34.01-22.63L34.01-22.63Q33.86-22.54 33.86-22.48L33.86-22.48 33.84-22.48Q30.59-25.25 30.34-25.49L30.34-25.49ZM9.84-20.79L9.84-20.79Q8.9-18.74 8.83-18.65L8.83-18.65 8.85-18.65 11.71-18.98Q11.82-18.3 12.06-17.05L12.06-17.05 12.08-17.05Q12.08-17.09 12.88-18.7L12.88-18.7Q13.75-20.48 13.97-20.98L13.97-20.98 13.95-20.98Q10.09-20.79 9.84-20.79ZM6.99-4.46L6.99-4.46 12.52-1.19Q17.47-2.83 17.53-2.83L17.53-2.83 19.64 2.11 19.62 2.11Q19.2 2.29 14.06 4.2L14.06 4.2 12.39-0.4 12.37-0.4Q9.6 4.22 9.43 4.39L9.43 4.39Q4.22 1.45 2.99 0.77L2.99 0.77 2.99 0.75Q3.74-0.29 6.99-4.46ZM32.41-3.93L32.41-3.93 36.06 0.83Q35.88 0.92 30.3 4.2L30.3 4.2 26.98-0.75 26.98-0.79Q27.8-1.25 32.41-3.93ZM20.06-1.08L25.2-2.57 26.98 2.29 26.96 2.29 21.49 4.2 21.49 4.17Q20.17-0.53 20.04-1.08L20.04-1.08 20.06-1.08ZM68.33-30.19L68.33-30.19Q68.38-29.9 69.15-21.16L69.15-21.16Q73.78-21.4 74.09-21.4L74.09-21.4Q74.09-21.18 74.62-14.85L74.62-14.85Q68.69-14.52 68.49-14.5L68.49-14.5Q67.65-11.27 67.65-11.18L67.65-11.18 67.68-11.18Q71.15-12.92 71.83-13.21L71.83-13.21 71.85-13.21Q71.85-13.16 73.61-10.59L73.61-10.59 75.5-7.82Q75.1-7.56 72.2-6.22L72.2-6.22Q71.94-6.06 69.92-5.1L69.92-5.1Q67.59-8.88 67.19-9.47L67.19-9.47 65.74-3.78 65.72-3.78Q65.48-3.8 58.43-5.23L58.43-5.23 61.33-14.11 61.3-14.11Q59.55-14.02 58.84-14.02L58.84-14.02Q58.84-14.46 58.56-18.19L58.56-18.19 58.54-18.19Q58.54-18.15 52.23-4.42L52.23-4.42Q51.97-3.78 51.9-3.78L51.9-3.78Q45.33-6.15 45.24-6.15L45.24-6.15Q45.48-6.75 47.07-9.95L47.07-9.95Q47.09-10 47.09-10.02L47.09-10.02 47.07-10.02Q44.45-9.84 44.23-9.84L44.23-9.84 44.23-9.89 44.08-13.58Q44.3-13.58 47.83-13.8L47.83-13.8Q47.86-13.73 47.86-13.71L47.86-13.71 47.99-11.84 48.01-11.84 49.81-15.58 49.77-15.58Q48.43-15.49 47.18-15.49L47.18-15.49Q46.85-17.07 46.78-17.53L46.78-17.53 46.76-17.53 45.18-14.19 45.15-14.19 39.84-16.11Q45.9-29.51 46.14-30.15L46.14-30.15 46.16-30.15Q46.23-30.15 49.75-29.11L49.75-29.11Q52.03-28.43 53.37-28.06L53.37-28.06Q53.22-27.69 52.47-26.1L52.47-26.1 52.49-26.1 58.21-26.32 60.05-21.45Q59.7-20.7 59.7-20.65L59.7-20.65 59.72-20.65Q61.26-20.76 61.7-20.76L61.7-20.76 61.7-20.79 61.02-29.4Q61-29.4 61-29.42L61-29.42Q67.28-30.06 68.33-30.19ZM68.8-25.49L72-28.76Q75.12-25.71 75.32-25.49L75.32-25.49Q75.28-25.49 74.95-25.11L74.95-25.11Q74.9-25.11 74.71-24.87L74.71-24.87Q74.66-24.87 74.11-24.28L74.11-24.28Q74.07-24.28 73.92-24.08L73.92-24.08Q73.89-24.08 73.32-23.49L73.32-23.49Q73.28-23.49 73.13-23.29L73.13-23.29Q73.08-23.29 72.77-22.92L72.77-22.92Q72.73-22.92 72.47-22.63L72.47-22.63Q72.31-22.54 72.31-22.48L72.31-22.48 72.29-22.48Q69.04-25.25 68.8-25.49L68.8-25.49ZM48.3-20.79L48.3-20.79Q47.35-18.74 47.29-18.65L47.29-18.65 47.31-18.65 50.16-18.98Q50.27-18.3 50.52-17.05L50.52-17.05 50.54-17.05Q50.54-17.09 51.33-18.7L51.33-18.7Q52.21-20.48 52.43-20.98L52.43-20.98 52.4-20.98Q48.54-20.79 48.3-20.79ZM45.44-4.46L45.44-4.46 50.98-1.19Q55.92-2.83 55.99-2.83L55.99-2.83 58.1 2.11 58.07 2.11Q57.66 2.29 52.51 4.2L52.51 4.2 50.84-0.4 50.82-0.4Q48.05 4.22 47.88 4.39L47.88 4.39Q42.67 1.45 41.44 0.77L41.44 0.77 41.44 0.75Q42.19-0.29 45.44-4.46ZM70.86-3.93L70.86-3.93 74.51 0.83Q74.33 0.92 68.75 4.2L68.75 4.2 65.43-0.75 65.43-0.79Q66.25-1.25 70.86-3.93ZM58.51-1.08L63.65-2.57 65.43 2.29 65.41 2.29 59.94 4.2 59.94 4.17Q58.62-0.53 58.49-1.08L58.49-1.08 58.51-1.08ZM80.02-0.2L81.32-26.17 81.34-26.17Q105.36-24.92 110.92-24.61L110.92-24.61Q111.86-24.57 112.17-24.57L112.17-24.57Q112.17-24.54 112.21-24.54L112.21-24.54Q112.21-24.57 112.24-24.57L112.24-24.57 112.24-24.54 110.79 0.79Q110.74 0.86 110.74 1.25L110.74 1.25Q110.72 1.3 110.72 1.32L110.72 1.32Q110.59 1.3 110.59 1.3L110.59 1.3 83.56 0Q81.28-0.13 80.02-0.18L80.02-0.18 80.02-0.2ZM88.88-18.9L88.88-18.9 88.88-18.85 88.04-5.19 102.44-5.19 102.44-18.02Q91.08-18.76 88.88-18.9ZM134.23-23.91L136.78-29.82 143.28-28.65Q143.17-28.34 142.91-27.25L142.91-27.25Q150.34-27.84 151.83-27.95L151.83-27.95 151.83-22.72Q151.83-22.63 150.47-22.61L150.47-22.61Q150.45-22.57 147.7-22.43L147.7-22.43 147.68-22.39Q149.08-21.29 149.19-21.18L149.19-21.18Q148.84-20.92 147.35-19.73L147.35-19.73 147.3-19.73 147.3-19.69 147.37-19.69Q148.34-19.75 149.19-19.82L149.19-19.82 150.05-5.73Q149.88-5.71 149.85-5.71L149.85-5.71Q148.82-5.71 145.59-5.65L145.59-5.65 145.59-3.56Q145.59-3.52 145.63-3.52L145.63-3.52Q146.29-3.52 151.46-3.41L151.46-3.41 151.46 1.25 145.59 1.16 145.59 3.74 137.44 4.39 137.44 1.08Q134.21 1.03 132.93 1.03L132.93 1.03Q132.45 0.99 132.3 0.99L132.3 0.99Q130.43 4.33 130.36 4.39L130.36 4.39 122.5 3.21 122.5 3.19Q123.84 0.94 123.84 0.9L123.84 0.9 123.82 0.9Q120.15 0.86 118.94 0.86L118.94 0.86 118.94-3.98Q119.88-3.98 125.24-3.87L125.24-3.87 125.24-5.25Q123.05-5.23 122.65-5.23L122.65-5.23Q122.65-5.21 122.63-5.21L122.63-5.21 122.61-5.3 121.99-17.97 139.64-19.16 139.64-19.18Q139.55-19.18 132.93-21.01L132.93-21.01 133.68-22.7 133.66-22.7Q132.93-22.65 130.98-22.46L130.98-22.46 132.43-21.05 129.33-18.5Q127.09-20.74 126.72-21.18L126.72-21.18Q127.68-21.93 127.92-22.15L127.92-22.15 127.9-22.15 124.91-21.88Q124.8-21.51 123.77-19.14L123.77-19.14Q123.53-19.16 117.31-20.68L117.31-20.68Q121.11-29.4 121.31-29.79L121.31-29.79Q122.28-29.6 127.57-28.37L127.57-28.37 126.98-27.31Q133.18-27.82 133.7-27.84L133.7-27.84 133.7-27.82 134.19-23.91 134.23-23.91ZM143.99-22.19L140.8-21.99 139.86-19.18 139.88-19.18Q143.35-19.42 144.69-19.51L144.69-19.51Q144.69-19.51 142.89-21.07L142.89-21.07 142.89-21.09 144.01-22.19 143.99-22.19ZM130.14-15.51L130.14-15.51 130.14-14.28Q134.76-14.41 135.73-14.41L135.73-14.41 136.01-14.44 135.83-12.5 130.14-12.37 130.14-10.96 137.83-11.8 137.55-9.6Q130.28-8.88 130.14-8.88L130.14-8.88 130.14-7.54 140.73-8.15 140.73-8.17 140.3-16.06 140.27-16.06Q130.3-15.51 130.14-15.51ZM133.04-5.43L133.04-5.43 133.04-3.74Q133.99-3.74 137.44-3.65L137.44-3.65 137.44-5.49Q134.27-5.43 133.04-5.43Z" transform="translate(-1.3799999952316284, 30.190000534057617)"></path></g> <!----> <!----> <!----> <!----> <!----> <!----> <!----></g></g> <g data-gra="path-slogan" fill-rule="" class="tp-slogan" fill="#e69138" transform="translate(16.044174194335938,40.58000183105469)"><!----> <!----> <g transform="scale(1, 1)"><g transform="scale(1)"><path d="M7.17-6.09L7.17-6.09L6.09-6.09Q6-7.73 3.94-7.83L3.94-7.83Q2.02-7.78 2.02-6.33L2.02-6.33Q2.02-5.39 3.05-5.25L3.05-5.25L5.48-4.69Q7.41-4.22 7.41-2.34L7.41-2.34Q7.36 0.05 4.03 0.14L4.03 0.14Q2.20 0.14 1.45-0.61L1.45-0.61Q0.52-1.31 0.56-2.77L0.56-2.77L1.69-2.77Q1.73-0.80 4.03-0.75L4.03-0.75Q6.28-0.80 6.33-2.20L6.33-2.20Q6.52-3.38 4.45-3.75L4.45-3.75L2.67-4.13Q0.84-4.64 0.84-6.19L0.84-6.19Q0.98-8.72 3.84-8.81L3.84-8.81Q7.08-8.81 7.17-6.09ZM9.05-8.58L10.22-8.58L10.22 0L9.05 0L9.05-8.58ZM20.44-8.58L20.44 0L19.31 0L19.31-5.06Q19.31-5.77 19.31-7.22L19.31-7.22L16.88 0L15.70 0L13.31-7.22L13.27-7.22Q13.27-6.70 13.31-5.67L13.31-5.67Q13.31-5.16 13.31-5.06L13.31-5.06L13.31 0L12.14 0L12.14-8.58L13.83-8.58L16.31-1.31L18.75-8.58L20.44-8.58ZM25.78-7.64L23.44-7.64L23.44-4.64L25.73-4.64Q27.52-4.64 27.52-6.19L27.52-6.19Q27.52-7.59 25.78-7.64L25.78-7.64ZM26.16-3.61L23.44-3.61L23.44 0L22.27 0L22.27-8.58L26.16-8.58Q28.59-8.48 28.69-6.19L28.69-6.19Q28.55-3.70 26.16-3.61L26.16-3.61ZM30.09-8.58L31.27-8.58L31.27-1.03L35.63-1.03L35.63 0L30.09 0L30.09-8.58ZM38.06-1.03L43.22-1.03L43.22 0L36.89 0L36.89-8.58L43.13-8.58L43.13-7.59L38.06-7.59L38.06-4.92L42.75-4.92L42.75-3.89L38.06-3.89L38.06-1.03ZM53.72 0L52.88-2.48L49.41-2.48L48.52 0L47.34 0L50.58-8.58L51.89-8.58L54.98 0L53.72 0ZM51.14-7.31L49.78-3.52L52.45-3.52L51.19-7.31L51.14-7.31ZM57.42-8.58L61.73-1.64L61.73-8.58L62.86-8.58L62.86 0L61.55 0L57.19-6.94L57.14-6.94L57.14 0L56.02 0L56.02-8.58L57.42-8.58ZM68.16 0L64.69 0L64.69-8.58L68.20-8.58Q71.67-8.39 71.81-4.41L71.81-4.41Q71.63-0.09 68.16 0L68.16 0ZM68.02-7.64L65.86-7.64L65.86-0.98L68.11-0.98Q70.55-1.13 70.64-4.31L70.64-4.31Q70.59-7.55 68.02-7.64L68.02-7.64ZM82.88-6.09L82.88-6.09L81.80-6.09Q81.70-7.73 79.64-7.83L79.64-7.83Q77.72-7.78 77.72-6.33L77.72-6.33Q77.72-5.39 78.75-5.25L78.75-5.25L81.19-4.69Q83.11-4.22 83.11-2.34L83.11-2.34Q83.06 0.05 79.73 0.14L79.73 0.14Q77.91 0.14 77.16-0.61L77.16-0.61Q76.22-1.31 76.27-2.77L76.27-2.77L77.39-2.77Q77.44-0.80 79.73-0.75L79.73-0.75Q81.98-0.80 82.03-2.20L82.03-2.20Q82.22-3.38 80.16-3.75L80.16-3.75L78.38-4.13Q76.55-4.64 76.55-6.19L76.55-6.19Q76.69-8.72 79.55-8.81L79.55-8.81Q82.78-8.81 82.88-6.09ZM86.77-7.59L83.86-7.59L83.86-8.58L90.80-8.58L90.80-7.59L87.89-7.59L87.89 0L86.77 0L86.77-7.59ZM97.50-3.19L97.50-8.58L98.67-8.58L98.67-3.05Q98.53 0.05 95.16 0.14L95.16 0.14Q92.02 0.05 91.88-2.86L91.88-2.86L91.88-8.58L93.05-8.58L93.05-3.19Q93.09-0.84 95.20-0.80L95.20-0.80Q97.50-0.84 97.50-3.19L97.50-3.19ZM104.11-7.64L101.77-7.64L101.77-4.64L104.06-4.64Q105.84-4.64 105.84-6.19L105.84-6.19Q105.84-7.59 104.11-7.64L104.11-7.64ZM104.48-3.61L101.77-3.61L101.77 0L100.59 0L100.59-8.58L104.48-8.58Q106.92-8.48 107.02-6.19L107.02-6.19Q106.88-3.70 104.48-3.61L104.48-3.61ZM108.61-8.58L109.78-8.58L109.78 0L108.61 0L108.61-8.58ZM115.27 0L111.80 0L111.80-8.58L115.31-8.58Q118.78-8.39 118.92-4.41L118.92-4.41Q118.73-0.09 115.27 0L115.27 0ZM115.13-7.64L112.97-7.64L112.97-0.98L115.22-0.98Q117.66-1.13 117.75-4.31L117.75-4.31Q117.70-7.55 115.13-7.64L115.13-7.64Z" transform="translate(-0.5602678571428572, 8.8125)"></path></g></g></g></g><defs v-gra="od"></defs></svg>